Normalized EMG Linear Envelopes
nRows=129
nColumns=4

endheader
time	 med_gas_r	  soleus_r	 tib_ant_r	
3.1875	  0.009192	  0.019026	  0.004417	
3.25	  0.008342	  0.018323	  0.004273	
3.3125	  0.008068	  0.018119	  0.004202	
3.375	  0.008804	  0.018828	  0.004218	
3.4375	  0.010962	  0.020455	  0.004273	
3.5	  0.014222	  0.022630	  0.004289	
3.5625	  0.016832	  0.024715	  0.004206	
3.625	  0.016894	  0.025881	  0.004021	
3.6875	  0.014499	  0.025781	  0.003779	
3.75	  0.011403	  0.024996	  0.003574	
3.8125	  0.009009	  0.024359	  0.003532	
3.875	  0.007675	  0.024056	  0.003698	
3.9375	  0.007238	  0.023556	  0.003962	
4	  0.007349	  0.022387	  0.004143	
4.0625	  0.007601	  0.020796	  0.004179	
4.125	  0.007730	  0.019431	  0.004162	
4.1875	  0.007700	  0.018587	  0.004170	
4.25	  0.007648	  0.018148	  0.004165	
4.3125	  0.007817	  0.017975	  0.004103	
4.375	  0.008569	  0.017830	  0.004025	
4.4375	  0.010182	  0.017366	  0.003983	
4.5	  0.012250	  0.016691	  0.003983	
4.5625	  0.013533	  0.016249	  0.004035	
4.625	  0.013084	  0.015982	  0.004173	
4.6875	  0.011365	  0.015448	  0.004366	
4.75	  0.009673	  0.014679	  0.004476	
4.8125	  0.008869	  0.014316	  0.004379	
4.875	  0.008965	  0.015172	  0.004154	
4.9375	  0.009490	  0.018098	  0.004072	
5	  0.009981	  0.023791	  0.004377	
5.0625	  0.010236	  0.031443	  0.005076	
5.125	  0.010184	  0.037466	  0.005858	
5.1875	  0.009781	  0.037808	  0.006270	
5.25	  0.009118	  0.032295	  0.006080	
5.3125	  0.008429	  0.024563	  0.005398	
5.375	  0.007876	  0.017843	  0.004452	
5.4375	  0.007401	  0.012977	  0.003405	
5.5	  0.006892	  0.010004	  0.002456	
5.5625	  0.006605	  0.010261	  0.002119	
5.625	  0.007557	  0.017295	  0.003518	
5.6875	  0.011591	  0.035970	  0.008317	
5.75	  0.020855	  0.069893	  0.017883	
5.8125	  0.036936	  0.118667	  0.031991	
5.875	  0.059558	  0.175830	  0.048217	
5.9375	  0.084405	  0.228581	  0.062688	
6	  0.103130	  0.263401	  0.072167	
6.0625	  0.109909	  0.277135	  0.076388	
6.125	  0.108649	  0.280288	  0.078009	
6.1875	  0.109468	  0.284071	  0.079686	
6.25	  0.117986	  0.288008	  0.082215	
6.3125	  0.133049	  0.286484	  0.085533	
6.375	  0.155786	  0.282373	  0.089459	
6.4375	  0.193470	  0.284746	  0.093192	
6.5	  0.248773	  0.294865	  0.095617	
6.5625	  0.310865	  0.305058	  0.096308	
6.625	  0.362674	  0.310485	  0.095931	
6.6875	  0.394012	  0.311138	  0.095954	
6.75	  0.407293	  0.306871	  0.098064	
6.8125	  0.414022	  0.300068	  0.103733	
6.875	  0.424707	  0.297304	  0.113431	
6.9375	  0.440138	  0.303677	  0.124819	
7	  0.453807	  0.317881	  0.132523	
7.0625	  0.461772	  0.332945	  0.132802	
7.125	  0.465918	  0.342028	  0.128555	
7.1875	  0.469841	  0.342636	  0.126600	
7.25	  0.477514	  0.336860	  0.130211	
7.3125	  0.493384	  0.332963	  0.136446	
7.375	  0.516874	  0.342457	  0.140663	
7.4375	  0.538421	  0.368816	  0.142783	
7.5	  0.546455	  0.403274	  0.146868	
7.5625	  0.538006	  0.434623	  0.154640	
7.625	  0.524123	  0.458368	  0.163875	
7.6875	  0.526181	  0.472967	  0.172354	
7.75	  0.555867	  0.470948	  0.178980	
7.8125	  0.596477	  0.444002	  0.183242	
7.875	  0.619629	  0.401648	  0.186023	
7.9375	  0.619152	  0.375272	  0.187859	
8	  0.611132	  0.390467	  0.187294	
8.0625	  0.606072	  0.438547	  0.184867	
8.125	  0.600981	  0.492072	  0.184789	
8.1875	  0.595382	  0.542182	  0.188193	
8.25	  0.593655	  0.593718	  0.189760	
8.3125	  0.590649	  0.632128	  0.184962	
8.375	  0.574469	  0.629268	  0.176194	
8.4375	  0.544633	  0.580224	  0.169362	
8.5	  0.514481	  0.513280	  0.167929	
8.5625	  0.497983	  0.465964	  0.170897	
8.625	  0.500128	  0.458440	  0.174362	
8.6875	  0.516718	  0.483429	  0.176143	
8.75	  0.540130	  0.518035	  0.179193	
8.8125	  0.563250	  0.545860	  0.187714	
8.875	  0.578637	  0.564525	  0.199903	
8.9375	  0.581903	  0.574043	  0.207607	
9	  0.579667	  0.569924	  0.205016	
9.0625	  0.586469	  0.555574	  0.195931	
9.125	  0.608979	  0.546726	  0.188971	
9.1875	  0.638347	  0.547693	  0.187114	
9.25	  0.659918	  0.541239	  0.186769	
9.3125	  0.663453	  0.515935	  0.184390	
9.375	  0.643795	  0.482585	  0.179242	
9.4375	  0.602566	  0.457012	  0.173782	
9.5	  0.552025	  0.444897	  0.173665	
9.5625	  0.509658	  0.442237	  0.182800	
9.625	  0.486764	  0.439772	  0.197914	
9.6875	  0.484481	  0.433703	  0.210356	
9.75	  0.499577	  0.433704	  0.213510	
9.8125	  0.529630	  0.450654	  0.207738	
9.875	  0.569797	  0.479093	  0.197295	
9.9375	  0.607369	  0.499506	  0.184974	
10	  0.623278	  0.494775	  0.172461	
10.0625	  0.602500	  0.462845	  0.162094	
10.125	  0.549763	  0.419740	  0.154984	
10.1875	  0.492776	  0.388155	  0.150014	
10.25	  0.456903	  0.376550	  0.144952	
10.3125	  0.436936	  0.373050	  0.136605	
10.375	  0.407688	  0.361814	  0.122381	
10.4375	  0.357794	  0.339062	  0.103478	
10.5	  0.296444	  0.308664	  0.084107	
10.5625	  0.235281	  0.268806	  0.067402	
10.625	  0.179214	  0.214602	  0.054282	
10.6875	  0.128443	  0.150534	  0.045176	
10.75	  0.082760	  0.090359	  0.040213	
10.8125	  0.045502	  0.046506	  0.038197	
10.875	  0.021112	  0.022849	  0.037048	
10.9375	  0.009539	  0.014993	  0.035039	
11	  0.006288	  0.015358	  0.031552	
11.0625	  0.006357	  0.017959	  0.027111	
11.125	  0.006560	  0.019855	  0.022557	
11.1875	  0.005737	  0.020348	  0.018197	
